<svg xmlns="http://www.w3.org/2000/svg" viewBox="0 0 336.65 263"><defs><style>.cls-1{fill:#88cdca;}.cls-2{fill:#f1838b;}.cls-3{fill:#f5956d;}.cls-4{fill:#cf595f;}.cls-5{fill:#c44b54;}.cls-6{fill:#fc4c55;}.cls-7{fill:#fdbc42;}.cls-8{fill:#a33a44;}.cls-9{fill:none;stroke:#35bedd;stroke-miterlimit:10;stroke-width:2px;}</style></defs><title>boxpromo</title><g id="Layer_2" data-name="Layer 2"><g id="Layer_1-2" data-name="Layer 1"><path class="cls-1" d="M27,85.91c1.11,4.77,23.26-4.7,49.25,7.14,27.05,12.32,37.81,38.39,43,35.53,4.58-2.51-2.67-23.14-3-24C112.76,94.78,106.06,76,89.47,68,62.06,54.83,25.49,79.63,27,85.91Z"/><path class="cls-1" d="M204.51,131.39c-2.23-3.77,24-39.9,58.71-58.61,14.24-7.67,38.59-17.09,42.32-8,1.84,4.45-1.55,12.83-6,18.23-8.32,10.18-20.05,9.47-31.56,11.68C232.27,101.53,206.69,135.08,204.51,131.39Z"/><circle class="cls-2" cx="54.62" cy="128.5" r="7.5"/><circle class="cls-2" cx="232.62" cy="61.5" r="7.5"/><circle class="cls-2" cx="297.12" cy="220" r="11"/><circle class="cls-2" cx="93.12" cy="11" r="11"/><path class="cls-1" d="M160.48,119.09c4.38,2.32,55.78-56.64,39.18-96.34-4.56-10.9-14.34-20.58-19.21-18.87-7,2.45.69,26.62-4.3,62.15C171.24,101,158.17,117.88,160.48,119.09Z"/><rect class="cls-3" x="74.12" y="177" width="181" height="86"/><rect class="cls-4" x="186.71" y="177" width="68.41" height="86"/><polygon class="cls-5" points="74.12 177 54.12 148 109.12 148 131.41 177 74.12 177"/><path class="cls-6" d="M141.45,176.84l-.82-36.72c-.06-2.39-2.59-4.27-5.65-4.21l-2.72.06c-3.06.07-5.51,2.07-5.45,4.45l.81,36.72Z"/><path class="cls-7" d="M194.74,177a34.54,34.54,0,0,0-59.62,0Z"/><polygon class="cls-5" points="187.12 177 212.12 148 278.12 148 255.12 177 187.12 177"/><polygon class="cls-8" points="74.12 257.71 255.12 247.2 255.12 263 74.12 263 74.12 257.71"/><path class="cls-9" d="M74.12,230C62,228.4,49.7,225.44,47.6,219.48c-2.58-7.34,12.91-12,11.72-21.5-1.48-11.73-27.2-19.46-37-22.41A130.25,130.25,0,0,0,.12,171"/><path class="cls-9" d="M246.12,230c-8.16-4.43-28-15.95-26-24,2.38-9.59,34.7-9.93,41-10,28.26-.3,45.09,7.44,49,1,2.89-4.76-5.26-10.74-6-21-1.15-15.89,16.33-30.15,32-40"/></g></g></svg>